<?xml version="1.0" encoding="UTF-8"?>
<svg id="Calque_1" data-name="Calque 1" xmlns="http://www.w3.org/2000/svg" xmlns:xlink="http://www.w3.org/1999/xlink" viewBox="0 0 841.89 841.89">
  <defs>
    <style>
      .cls-1 {
        fill: #f8fff9;
      }

      .cls-2 {
        fill: url(#Dégradé_sans_nom_30);
      }
    </style>
    <linearGradient id="Dégradé_sans_nom_30" data-name="Dégradé sans nom 30" x1=".95" y1="420.99" x2="840.94" y2="420.99" gradientUnits="userSpaceOnUse">
      <stop offset=".21" stop-color="#00bc7d"/>
      <stop offset=".37" stop-color="#00b37c"/>
      <stop offset="1" stop-color="#009179"/>
    </linearGradient>
  </defs>
  <rect class="cls-2" x=".95" y="1" width="839.99" height="839.99" rx="173.59" ry="173.59" transform="translate(-.05 841.94) rotate(-90)"/>
  <path class="cls-1" d="m613.35,261.44s-.02-.02-.03-.04c-12.48-16.92-37.16-45.31-77.67-64.19-77.68-36.29-152.15-9.12-167.6-3.09-22.88,8.58-60.88,26.39-96,62.68-53.88,55.68-67,119.85-70.75,144.73,0,.01,0,.02,0,.03-2.16,22.41-3.65,69.55,19.23,122.23,25.76,59.23,67.78,91.96,86.29,104.76,13.53,8.43,31.64,17.79,54.11,24.65,38.63,11.82,72.5,10.9,93.94,8.49.46-.05.62-.63.24-.91-19.12-13.94-47.79-38.49-71.08-76.89-7.41-12.24-72.79-120.09-24.41-195.7,0,0,24.8-38.78,76.51-55.25,8.79-2.79,23.03-7.2,39.17-2.13,6.14,1.93,11.06,4.68,14.76,7.28.34.24.24.76-.16.89-20.3,6.66-29.82,16.48-34.81,24.19-5.46,8.43-4.71,15.22-15.78,44.55h0c-4.98,13.06-13.33,24.62-24.41,33.15-3.06,2.35-6.49,4.68-10.32,6.85-14.66,8.32-28.4,10.53-36.38,11.21-.38.03-.59.44-.39.76,4.99,7.98,45.62,68.59,121.52,69.45,79.6.87,121.89-64.81,124.02-68.26,8.88-14.37,28.4-50.18,28.37-99.84-.03-49.53-19.48-85.24-28.36-99.61Zm-21.7,159.51c-4.41,12.78-12.21,27.98-26.27,40.55-31.36,28.12-81.61,32.2-129.36,12.27-.43-.18-.42-.82.03-.97,5.84-1.97,13.91-5.61,21.88-12.32,15.27-12.85,20.53-28.96,22.31-35.66,0-.02.01-.04.02-.05,2.81-7.03,14.09-32.77,42.25-45.71,12.86-5.87,24.79-7.09,32.72-7.14.29,0,.5-.22.5-.51-.29-8.59-2.11-26.62-13.81-45.17-14.42-22.87-34.94-32.41-42.51-35.47-.01,0-.02,0-.03-.01-11.81-3.9-49.34-14.56-93.5.52-43.55,14.88-66.61,45.62-73.69,55.94-11.37,17.22-36.59,60.7-35.15,119.94,2.16,88.21,61.88,143.85,78.3,157.74.45.38.01,1.1-.53.86-13.54-5.92-30.92-15.19-48.83-29.72-20.81-16.89-34.67-34.64-43.34-47.75-9.87-14.7-22.97-38.03-30.68-69.13-6.09-24.59-6.81-46.1-6.12-61.78,1.44-18.33,6.39-50.42,25.76-84.76,23.99-42.44,57.04-65.29,73.42-75.07,17.97-11.28,57.25-32.33,110.37-32.9,30.07-.3,54.71,6.08,71.42,11.99.02,0,.03.01.05.02,14.06,6.39,31.51,17.06,46.22,34.96,48.56,59.2,21.23,141.71,18.59,149.36Z"/>
</svg>